<?xml version="1.0" encoding="utf-8"?>
<!-- Generator: Adobe Illustrator 22.0.1, SVG Export Plug-In . SVG Version: 6.00 Build 0)  -->
<svg version="1.1" id="Ebene_2_1_" xmlns="http://www.w3.org/2000/svg" xmlns:xlink="http://www.w3.org/1999/xlink" x="0px" y="0px"
	 viewBox="0 0 459.6 247" style="enable-background:new 0 0 459.6 247;" xml:space="preserve">
<style type="text/css">
	.st0{fill:#64A943;stroke:#7DC759;stroke-width:2;stroke-miterlimit:10;}
</style>
<g>
	<path class="st0" d="M113.8,123.7H19.7v92.9h107.8v7.4H12.4V24.5h115.1v7.4H19.7v84.4h94.1V123.7z"/>
	<path class="st0" d="M215.7,204.5l3.5,10.8h0.8l3.5-10.8l52.9-145.2l8.8-22.8c12.3-31.7,67.5-23.8,68.4-23.6l-34.3,6.9
		c-12.9,3.3-23.8,11.1-28.8,25.6l-4.5,12.4l-60.9,163.7c-0.5,1.5-1.9,2.4-3.5,2.4h-3.7c-1.6,0-3-1-3.5-2.4l-70.4-192
		c-0.9-2.4,0.9-5,3.5-5h0c1.6,0,3,1,3.5,2.4L215.7,204.5z"/>
	<path class="st0" d="M421.7,164.4h-95.6l-21.9,59.6h-7.9l73.2-199.4h8.9l73.3,199.4h-7.9L421.7,164.4z M328.8,157H419L378,45.3
		l-3.8-11.6h-0.8l-3.6,11.6L328.8,157z"/>
</g>
</svg>
