<?xml version="1.0" encoding="iso-8859-1"?>
<!DOCTYPE svg PUBLIC "-//W3C//DTD SVG 1.1//EN" "http://www.w3.org/Graphics/SVG/1.1/DTD/svg11.dtd">
<svg xmlns="http://www.w3.org/2000/svg" xmlns:xlink="http://www.w3.org/1999/xlink" version="1.1" viewBox="0 0 297 297" enable-background="new 0 0 297 297" width="512px" height="512px">
  <g>
    <path d="m251.93,276.487c0,11.31 9.202,20.513 20.513,20.513s20.513-9.202 20.513-20.513-9.202-20.513-20.513-20.513-20.513,9.203-20.513,20.513z" fill="#1C4E9C"/>
    <path d="m227.084,78.584c0-43.331-35.253-78.584-78.584-78.584s-78.584,35.253-78.584,78.584 35.253,78.584 78.584,78.584 78.584-35.253 78.584-78.584zm-96.15,27.389c-2.514,0-5.028-0.959-6.946-2.877-3.836-3.836-3.836-10.057 0-13.893l14.689-14.688v-48.628c0-5.425 4.398-9.823 9.823-9.823s9.823,4.398 9.823,9.823v52.697c0,2.605-1.035,5.103-2.877,6.946l-17.566,17.566c-1.918,1.917-4.432,2.877-6.946,2.877z" fill="#1C4E9C"/>
    <path d="m4.045,276.487c0,11.31 9.202,20.513 20.513,20.513s20.513-9.202 20.513-20.513-9.202-20.513-20.513-20.513-20.513,9.203-20.513,20.513z" fill="#1C4E9C"/>
    <path d="m127.987,276.487c0,11.31 9.202,20.513 20.513,20.513s20.513-9.202 20.513-20.513-9.202-20.513-20.513-20.513-20.513,9.203-20.513,20.513z" fill="#1C4E9C"/>
    <path d="m24.557,239.796c3.659,0 7.191,0.545 10.528,1.547v-13.118h103.591v12.917c3.129-0.871 6.421-1.346 9.823-1.346s6.694,0.475 9.823,1.346v-12.917h103.591v13.118c3.337-1.002 6.87-1.547 10.528-1.547 3.146,0 6.201,0.399 9.118,1.148v-22.542c0-5.425-4.398-9.823-9.823-9.823h-113.413v-33.417c-3.231,0.326-6.508,0.495-9.823,0.495s-6.592-0.169-9.823-0.495v33.417h-113.414c-5.425,0-9.823,4.398-9.823,9.823v22.542c2.916-0.749 5.971-1.148 9.117-1.148z" fill="#1C4E9C"/>
  </g>
</svg>
