<svg id="Capa_1" data-name="Capa 1" xmlns="http://www.w3.org/2000/svg" viewBox="0 0 512 512"><defs><style>.cls-1{fill:#1c4e9c;}</style></defs><title>002-people</title><path class="cls-1" d="M469.34,48H400V16a16,16,0,0,0-32,0V48H272V16a16,16,0,0,0-32,0V48H144V16a16,16,0,0,0-32,0V48H42.67A42.66,42.66,0,0,0,0,90.66V469.33A42.66,42.66,0,0,0,42.67,512H469.34A42.66,42.66,0,0,0,512,469.33V90.66A42.65,42.65,0,0,0,469.34,48ZM480,469.33A10.67,10.67,0,0,1,469.34,480H42.67A10.67,10.67,0,0,1,32,469.33V90.66A10.67,10.67,0,0,1,42.67,80H112v32a16,16,0,0,0,32,0V80h96v32a16,16,0,0,0,32,0V80h96v32a16,16,0,0,0,32,0V80h69.34A10.67,10.67,0,0,1,480,90.66Z"/></svg>