<svg id="Ebene_1" data-name="Ebene 1" xmlns="http://www.w3.org/2000/svg" viewBox="0 0 982 982"><defs><style>.cls-1{fill:#1c4e9c;}</style></defs><title>002-people</title><rect class="cls-1" x="743.12" y="477.86" width="158.44" height="60.69"/><polygon class="cls-1" points="91.92 0 91.92 95.43 132.35 82.57 132.35 41.69 941.51 41.69 941.51 573.23 297.62 573.23 295.52 614.88 982 614.88 982 0 91.92 0"/><ellipse class="cls-1" cx="156.28" cy="228.25" rx="119.83" ry="123.48"/><polygon class="cls-1" points="258.01 925.61 258.01 705.76 258.01 685.04 258.01 656.93 265.63 656.93 276.77 433.78 483.44 323.42 466.07 288.91 471.12 297.96 692.56 167.34 682.56 149.24 461.43 279.67 456.28 269.42 267.33 370.31 199.9 370.31 154.21 424.9 109.99 370.31 12.89 388.9 6.68 610.85 47.86 610.85 50.09 656.93 56.33 656.93 56.33 685.04 56.33 705.76 56.33 925.61 48.08 925.61 0 936.37 0 982 40.93 982 88.72 973.99 89.16 982 142.1 982 142.1 931.1 142.1 925.61 142.1 705.76 172.24 705.76 172.24 925.61 172.24 931.1 172.24 982 225.18 982 225.62 973.99 273.41 982 314.34 982 314.34 936.37 266.23 925.61 258.01 925.61"/></svg>