<svg id="Capa_1" data-name="Capa 1" xmlns="http://www.w3.org/2000/svg" viewBox="0 0 503.61 512"><defs><style>.cls-1{fill:#1c4e9c;}</style></defs><title>002-man</title><path class="cls-1" d="M472.56,176.94a58.73,58.73,0,1,0-72.25,6.59,42,42,0,0,0-18.41,34.7V277H348.33V235a58.79,58.79,0,0,0-51.79-58.3,58.75,58.75,0,1,0-81.08,0A58.79,58.79,0,0,0,163.67,235v42H130.1V218.23a42,42,0,0,0-18.41-34.7,58.79,58.79,0,1,0-72.25-6.59A41.93,41.93,0,0,0,4.2,218.23v125.9a42,42,0,0,0,33.57,41.12V512H54.56V386.1H130.1V503.61a8.39,8.39,0,0,0,8.39,8.39h50.36a8.4,8.4,0,0,0,8.4-8.39V369.31h50.36v125.9H214V512H298V495.21H264.39V369.31h50.36v134.3a8.4,8.4,0,0,0,8.4,8.39h50.36a8.39,8.39,0,0,0,8.39-8.39V386.1h75.54V512h16.79V385.25a42,42,0,0,0,33.57-41.12V218.23A41.93,41.93,0,0,0,472.56,176.94ZM390.3,134.3a42,42,0,1,1,42,42A42,42,0,0,1,390.3,134.3ZM214,134.3a42,42,0,1,1,42,42A42,42,0,0,1,214,134.3Zm55,58.75L256,227.9l-13.07-34.85Zm-88.61,42a42,42,0,0,1,42-42H225l23.14,61.7a8.39,8.39,0,0,0,15.72,0L287,193.05h2.57a42,42,0,0,1,42,42v42H298a8.4,8.4,0,0,0-8.4,8.4V319H222.43V285.38A8.4,8.4,0,0,0,214,277H180.46ZM37.77,134.3a42,42,0,1,1,42,42A42,42,0,0,1,37.77,134.3ZM180.46,495.21H146.89V377.7a8.4,8.4,0,0,0-8.4-8.39H46.16A25.21,25.21,0,0,1,21,344.13V218.23a25.21,25.21,0,0,1,25.18-25.18h42a25.21,25.21,0,0,1,25.18,25.18v67.15a8.39,8.39,0,0,0,8.39,8.39h83.94V319H88.13V243.41H71.34v83.93a8.4,8.4,0,0,0,8.4,8.4h75.54a25.21,25.21,0,0,1,25.18,25.18ZM315.69,352.52H196.31a41.91,41.91,0,0,0-7.47-16.78H323.16A41.91,41.91,0,0,0,315.69,352.52ZM491,344.13a25.21,25.21,0,0,1-25.18,25.18H373.51a8.4,8.4,0,0,0-8.4,8.39V495.21H331.54V360.92a25.21,25.21,0,0,1,25.18-25.18h75.54a8.4,8.4,0,0,0,8.4-8.4V243.41H423.87V319H306.36V293.77H390.3a8.39,8.39,0,0,0,8.39-8.39V218.23a25.21,25.21,0,0,1,25.18-25.18h42A25.21,25.21,0,0,1,491,218.23Z" transform="translate(-4.2 0)"/><path class="cls-1" d="M214,0H96.52a8.39,8.39,0,0,0-8.39,8.39v42a8.39,8.39,0,0,0,8.39,8.39H130.1V75.54a8.38,8.38,0,0,0,8.39,8.39,8.49,8.49,0,0,0,5-1.67l31.33-23.51H214a8.4,8.4,0,0,0,8.4-8.39v-42A8.4,8.4,0,0,0,214,0Zm-8.39,42H172.07a8.32,8.32,0,0,0-5,1.68l-20.14,15.1V50.36a8.4,8.4,0,0,0-8.4-8.39H104.92V16.79H205.64Z" transform="translate(-4.2 0)"/></svg>