<?xml version="1.0"?>
<svg xmlns="http://www.w3.org/2000/svg" xmlns:xlink="http://www.w3.org/1999/xlink" version="1.1" id="Layer_1" x="0px" y="0px" viewBox="0 0 488 488" style="enable-background:new 0 0 488 488;" xml:space="preserve" width="512px" height="512px" class=""><g><g transform="translate(0 -540.36)">
	<g>
		<g>
			<path d="M439,540.36H49c-5.5,0-10,4.5-10,10v468c0,5.5,4.5,10,10,10h390c5.5,0,10-4.5,10-10v-468     C449,544.86,444.5,540.36,439,540.36z M120.5,885.86h83.1c0,14.4,2.9,28.3,8.5,41h-91.6V885.86z M205.6,865.86h-85v-41H224     C214.8,836.96,208.5,850.96,205.6,865.86z M305.9,804.26c19.4,0,37.2,6.7,51.2,17.8c0.4,0.4,0.9,0.8,1.5,1.2     c18.1,15,29.6,37.4,29.6,62.5c0,44.9-36.9,81.5-82.3,81.5c-28.6-0.1-53.4-13.8-68.1-35.2l0,0c-0.3-0.5-0.6-1-1-1.4     c-8.4-12.8-13.2-28.2-13.2-44.9C223.6,840.86,260.5,804.26,305.9,804.26z M100.5,1008.36H59v-61.6h41.5V1008.36z M100.5,926.86     H59v-41h41.5V926.86z M100.5,865.86H59v-41h41.5V865.86z M100.5,804.86H59v-41h41.5V804.86z M100.5,743.86H59v-41h41.5V743.86z      M100.5,682.86H59v-41h41.5V682.86z M100.5,621.96H59v-61.6h41.5V621.96z M429,1008.36H120.5v-61.6h103.3     c2.9,3.8,6.1,7.5,9.5,10.9c19.2,19,44.9,29.5,72.5,29.5c27.3,0,52.9-10.5,72.2-29.5c3.5-3.4,6.7-7.1,9.6-10.9H429V1008.36z      M429,926.86h-29.4c5.6-12.8,8.6-26.7,8.6-41H429V926.86z M429,865.86h-22.8c-3-15.1-9.5-29.1-18.5-41H429V865.86z M429,804.86     h-61.4c-17.2-12.9-38.5-20.6-61.7-20.6c-22.7,0-44.3,7.2-61.9,20.6H120.5v-41H429V804.86z M429,743.86H120.5v-41H429V743.86z      M429,682.86H120.5v-41H429V682.86z M429,621.96H120.5v-61.6H429V621.96z" data-original="#000000" class="active-path" data-old_color="#000000" fill="#1C4E9C"/>
			<path d="M264.4,936.16c5.5,0,10-4.5,10-10v-13.3l23.6-10.3l10.9,10.8c3.9,3.9,10.3,3.9,14.1-0.1c3.9-3.8,3.9-10.2,0-14v0     l-15.9-15.8l-35.6-35.3c-2.9-2.8-7.2-3.7-10.9-2.1c-3.7,1.6-6.2,5.2-6.2,9.2v51.1c0,0,0,0,0,0.1v19.7     C254.4,931.66,258.9,936.16,264.4,936.16z M274.4,879.26l8.3,8.2l-8.3,3.6V879.26z" data-original="#000000" class="active-path" data-old_color="#000000" fill="#1C4E9C"/>
			<path d="M326.7,875.96h10v9.8c0,5.5,4.5,10,10,10s10-4.5,10-10v-9.8h10c5.5,0,10-4.5,10-10s-4.5-10-10-10h-10v-10.6     c0-5.5-4.5-10-10-10s-10,4.5-10,10v10.6h-10c-5.5,0-10,4.5-10,10S321.2,875.96,326.7,875.96z" data-original="#000000" class="active-path" data-old_color="#000000" fill="#1C4E9C"/>
		</g>
	</g>
</g></g> </svg>
