<?xml version="1.0"?>
<svg xmlns="http://www.w3.org/2000/svg" xmlns:xlink="http://www.w3.org/1999/xlink" version="1.1" id="Capa_1" x="0px" y="0px" viewBox="0 0 508 508" style="enable-background:new 0 0 508 508;" xml:space="preserve" width="512px" height="512px" class=""><g><g>
	<g>
		<rect x="294.9" y="417.9" width="41" height="16.4" data-original="#000000" class="active-path" data-old_color="#000000" fill="#1C4E9C"/>
	</g>
</g><g>
	<g>
		<path d="M396.8,65.8l0.2-0.3l-5.2-5.6C356.4,21.9,306.1,0,254,0c-6.5,0-13,0.3-19.4,1c-6.4,0.7-12.8,1.7-19.1,3    c-3.1,0.7-6.3,1.4-9.4,2.2c-34.2,9-65.6,27.5-90,53.7l-5.2,5.6l0.2,0.3C81.8,100,65.6,143.2,65.6,188.4    c0,47.9,17.9,93.5,50.5,128.5c14.6,15.6,32,28.8,51,38.7c-3.6,2.4-7,5.2-10.1,8.3c-11.3,11.3-18.2,26.3-19.6,42.3l-7,101.8h247    l-7-101.8v-0.1c-1.3-15.9-8.3-30.9-19.6-42.2c-3.1-3.1-6.5-5.9-10.2-8.4c19.1-9.9,36.3-22.7,51.2-38.6    c32.7-35,50.6-80.6,50.6-128.5C442.4,143.1,426.2,99.9,396.8,65.8z M425.7,180.3h-73.5c-0.5-25.7-3.7-49.9-8.9-71.8    c15.3-8.2,29.6-18.6,42.2-30.8C409.9,106.6,423.9,142.5,425.7,180.3z M302.2,23.3c0.7,0.3,1.4,0.5,2.1,0.7c4.6,1.4,9.2,3,13.7,4.8    c0.7,0.3,1.4,0.6,2.1,0.9c4.4,1.8,8.8,3.9,13.1,6.1c0.7,0.4,1.4,0.7,2,1.1c4.3,2.3,8.4,4.7,12.5,7.3c0.6,0.4,1.2,0.8,1.8,1.2    c4.1,2.7,8.1,5.6,11.9,8.7c0.5,0.4,0.9,0.8,1.4,1.1c3.9,3.2,7.8,6.6,11.4,10.1c0.1,0.1,0.2,0.2,0.2,0.2    C363.7,76,351.7,84.7,338.8,92C330,63.2,317.3,39.5,302,23.3C302.1,23.3,302.1,23.3,302.2,23.3z M262.2,17.3    c25.7,5.7,48.3,37.7,61.5,82.4c-19.3,8.6-40.1,13.5-61.5,14.6V17.3z M262.2,130.9c22.8-1,45-6.1,65.7-15    c4.5,19.8,7.3,41.6,7.8,64.3h-73.5V130.9z M262.2,196.6h73.5c-0.5,22.4-3.1,44-7.7,64.2c-0.3-0.1-0.7-0.3-1-0.4    c-4.5-33.2-31.3-59.5-64.8-63.3V196.6z M311.4,270.4c0,31.7-25.7,57.4-57.4,57.4c-31.6,0-57.4-25.7-57.4-57.4    c0-31.7,25.7-57.4,57.4-57.4C285.6,213,311.4,238.7,311.4,270.4z M245.8,196.6v0.5c-33.6,3.8-60.3,30.1-64.8,63.4    c-0.3,0.1-0.7,0.3-1,0.4c-4.6-20.3-7.2-41.9-7.7-64.3H245.8z M172.3,180.3c0.5-22.8,3.2-44.6,7.8-64.4c20.7,8.8,43,14,65.7,15    v49.4H172.3z M245.8,17.3v97c-21.4-1-42.2-6-61.5-14.6C197.5,55,220,23,245.8,17.3z M133.8,65.3c3.6-3.5,7.4-6.9,11.3-10.1    c0.5-0.4,1-0.8,1.4-1.2c3.8-3.1,7.8-5.9,11.9-8.6c0.6-0.4,1.2-0.8,1.9-1.2c4-2.6,8.2-5,12.4-7.3c0.7-0.4,1.4-0.7,2.1-1.1    c4.3-2.2,8.6-4.2,13-6.1c0.7-0.3,1.5-0.6,2.2-0.9c4.5-1.8,9-3.4,13.6-4.8c0.7-0.2,1.4-0.4,2.1-0.6h0.1    c-15.3,16.1-28,39.9-36.8,68.7c-12.8-7.3-24.9-16.1-35.5-26.5C133.6,65.5,133.7,65.4,133.8,65.3z M122.5,77.7    c12.6,12.2,26.8,22.5,42.1,30.8c-5.2,21.9-8.3,46.1-8.9,71.8H82.3C84.1,142.5,98.1,106.6,122.5,77.7z M82.3,196.7h73.6    c0.5,25,3.5,49.1,8.9,71.7c-15.4,8.3-29.7,18.7-42.2,30.9C98.2,270.3,84.1,234.5,82.3,196.7z M354.1,407.4l5.8,84.2H148l5.8-84.2    c1-12,6.3-23.4,14.8-31.9c9.5-9.5,22.7-15,36.2-15h11.3l37.2,74.4l44.6-74.4h5.2c13.7,0,26.5,5.3,36.2,15    C347.8,384,353.1,395.4,354.1,407.4z M322.3,346.4l0.2,0.5c-6.2-1.8-12.7-2.8-19.4-2.8h-14.5l-34,56.7l-28.4-56.7h-21.4    c-6.3,0-12.5,0.9-18.4,2.6c-19.5-8.3-37.6-20.5-52.8-35.3c13.8-13.5,29.8-24.6,47.1-32.8c4.1,36.8,35.4,65.5,73.3,65.5    c37.9,0,69.2-28.7,73.3-65.6c17.3,8.2,33.3,19.2,47,32.7C359.2,326,341.8,338,322.3,346.4z M385.5,299.3    c-12.6-12.2-26.9-22.7-42.3-31c5.4-22.6,8.3-46.6,8.9-71.6h73.6C423.9,234.5,409.9,270.4,385.5,299.3z" data-original="#000000" class="active-path" data-old_color="#000000" fill="#1C4E9C"/>
	</g>
</g></g> </svg>
