<?xml version="1.0" encoding="utf-8"?>
<!-- Generator: Adobe Illustrator 22.0.1, SVG Export Plug-In . SVG Version: 6.00 Build 0)  -->
<svg version="1.1" id="Capa_1" xmlns="http://www.w3.org/2000/svg" xmlns:xlink="http://www.w3.org/1999/xlink" x="0px" y="0px"
	 viewBox="0 0 512 512" style="enable-background:new 0 0 512 512;" xml:space="preserve">
<style type="text/css">
	.st0{fill:#1C4E9C;}
</style>
<g>
	<g>
		<g>
			<path class="st0" d="M399.9,66.3l0.2-0.3l-5.2-5.6C359.2,22.1,308.5,0,256,0c-6.6,0-13.1,0.3-19.6,1s-12.9,1.7-19.3,3
				c-3.1,0.7-6.3,1.4-9.5,2.2C173.3,15.3,141.6,34,117,60.4l-5.2,5.6l0.2,0.3c-29.5,34.5-45.9,78-45.9,123.6
				c0,48.3,18,94.2,50.9,129.5c14.7,15.7,32.3,29,51.4,39c-3.6,2.4-7.1,5.2-10.2,8.4c-11.4,11.4-18.3,26.5-19.8,42.6L131.4,512
				h248.9l-7.1-102.6v-0.1c-1.3-16-8.4-31.1-19.8-42.5c-3.1-3.1-6.6-5.9-10.3-8.5c19.3-10,36.6-22.9,51.6-38.9
				c33-35.3,51-81.2,51-129.5C445.9,144.2,429.6,100.7,399.9,66.3z M429.1,181.7H355c-0.5-25.9-3.7-50.3-9-72.4
				c15.4-8.3,29.8-18.7,42.5-31C413.1,107.4,427.2,143.6,429.1,181.7z M304.6,23.5c0.7,0.3,1.4,0.5,2.1,0.7c4.6,1.4,9.3,3,13.8,4.8
				c0.7,0.3,1.4,0.6,2.1,0.9c4.4,1.8,8.9,3.9,13.2,6.1c0.7,0.4,1.4,0.7,2,1.1c4.3,2.3,8.5,4.7,12.6,7.4c0.6,0.4,1.2,0.8,1.8,1.2
				c4.1,2.7,8.2,5.6,12,8.8c0.5,0.4,0.9,0.8,1.4,1.1c3.9,3.2,7.9,6.7,11.5,10.2c0.1,0.1,0.2,0.2,0.2,0.2
				c-10.8,10.6-22.9,19.4-35.9,26.7c-8.9-29-21.7-52.9-37.1-69.2C304.5,23.5,304.5,23.5,304.6,23.5z M264.3,17.4
				c25.9,5.7,48.7,38,62,83c-19.5,8.7-40.4,13.6-62,14.7V17.4z M264.3,131.9c23-1,45.4-6.1,66.2-15.1c4.5,20,7.4,41.9,7.9,64.8
				h-74.1V131.9z M264.3,198.1h74.1c-0.5,22.6-3.1,44.3-7.8,64.7c-0.3-0.1-0.7-0.3-1-0.4c-4.5-33.5-31.5-60-65.3-63.8V198.1z
				 M313.9,272.5c0,31.9-25.9,57.9-57.9,57.9c-31.8,0-57.9-25.9-57.9-57.9s25.9-57.9,57.9-57.9C287.8,214.7,313.9,240.6,313.9,272.5
				z M247.7,198.1v0.5c-33.9,3.8-60.8,30.3-65.3,63.9c-0.3,0.1-0.7,0.3-1,0.4c-4.6-20.5-7.3-42.2-7.8-64.8L247.7,198.1L247.7,198.1z
				 M173.7,181.7c0.5-23,3.2-45,7.9-64.9c20.9,8.9,43.3,14.1,66.2,15.1v49.8L173.7,181.7L173.7,181.7z M247.7,17.4v97.8
				c-21.6-1-42.5-6-62-14.7C199.1,55.4,221.7,23.2,247.7,17.4z M134.9,65.8c3.6-3.5,7.5-7,11.4-10.2c0.5-0.4,1-0.8,1.4-1.2
				c3.8-3.1,7.9-5.9,12-8.7c0.6-0.4,1.2-0.8,1.9-1.2c4-2.6,8.3-5,12.5-7.4c0.7-0.4,1.4-0.7,2.1-1.1c4.3-2.2,8.7-4.2,13.1-6.1
				c0.7-0.3,1.5-0.6,2.2-0.9c4.5-1.8,9.1-3.4,13.7-4.8c0.7-0.2,1.4-0.4,2.1-0.6h0.1c-15.4,16.2-28.2,40.2-37.1,69.2
				c-12.9-7.4-25.1-16.2-35.8-26.7C134.7,66,134.8,65.9,134.9,65.8z M123.5,78.3c12.7,12.3,27,22.7,42.4,31
				c-5.2,22.1-8.4,46.5-9,72.4h-74C84.8,143.6,98.9,107.4,123.5,78.3z M82.9,198.2h74.2c0.5,25.2,3.5,49.5,9,72.3
				c-15.5,8.4-29.9,18.8-42.5,31.1C99,272.4,84.8,236.3,82.9,198.2z M356.9,410.6l5.8,84.9H149.2l5.8-84.9
				c1-12.1,6.3-23.6,14.9-32.2c9.6-9.6,22.9-15.1,36.5-15.1h11.4l37.5,75l45-75h5.2c13.8,0,26.7,5.3,36.5,15.1
				C350.5,387,355.9,398.5,356.9,410.6z M324.8,349.1l0.2,0.5c-6.2-1.8-12.8-2.8-19.6-2.8h-14.6L256.6,404L228,346.8h-21.6
				c-6.3,0-12.6,0.9-18.5,2.6c-19.7-8.4-37.9-20.7-53.2-35.6c13.9-13.6,30-24.8,47.5-33.1c4.1,37.1,35.7,66,73.9,66
				s69.7-28.9,73.9-66.1c17.4,8.3,33.6,19.4,47.4,33C362,328.6,344.5,340.7,324.8,349.1z M388.5,301.7
				c-12.7-12.3-27.1-22.9-42.6-31.2c5.4-22.8,8.4-47,9-72.2h74.2C427.2,236.3,413.1,272.5,388.5,301.7z"/>
		</g>
	</g>
</g>
</svg>
