<?xml version="1.0"?>
<svg xmlns="http://www.w3.org/2000/svg" xmlns:xlink="http://www.w3.org/1999/xlink" version="1.1" id="Layer_1" x="0px" y="0px" viewBox="0 0 511.999 511.999" style="enable-background:new 0 0 511.999 511.999;" xml:space="preserve" width="512px" height="512px" class=""><g><g>
	<g>
		<g>
			<path d="M74.199,175.832c5.866,0,10.937-4.388,11.646-10.357l9.605-80.708c0.457-3.841-1.006-7.661-3.914-10.214     c-2.908-2.552-6.887-3.51-10.634-2.558L8.86,90.266c-6.288,1.595-10.092,7.984-8.497,14.27s7.98,10.089,14.27,8.497l35.96-9.12     C25.356,137.917,9.116,177.448,3.135,220.038c-7.508,53.447,2.312,108.955,27.651,156.301c2.116,3.954,6.173,6.204,10.365,6.204     c1.87,0,3.767-0.448,5.531-1.392c5.718-3.06,7.873-10.179,4.813-15.897C9.732,287.22,17.18,191.534,67.512,120.768l-4.99,41.93     c-0.767,6.44,3.833,12.283,10.274,13.05C73.268,175.805,73.735,175.832,74.199,175.832z" data-original="#000000" class="active-path" data-old_color="#000000" fill="#1C4E9C"/>
			<path d="M511.636,407.465c-1.595-6.288-7.985-10.09-14.27-8.497l-35.828,9.085c25.398-34.089,41.732-73.756,47.737-116.503     c7.508-53.447-2.312-108.955-27.651-156.301c-3.06-5.718-10.178-7.873-15.897-4.813c-5.718,3.06-7.873,10.177-4.813,15.897     c41.873,78.238,34.28,174.221-16.45,245.078l5.011-42.112c0.767-6.44-3.833-12.283-10.274-13.05     c-6.438-0.762-12.283,3.833-13.049,10.275l-9.605,80.708c-0.457,3.841,1.006,7.661,3.914,10.214     c2.168,1.902,4.929,2.918,7.749,2.918c0.962,0,1.932-0.119,2.887-0.361l72.042-18.27     C509.426,420.14,513.23,413.751,511.636,407.465z" data-original="#000000" class="active-path" data-old_color="#000000" fill="#1C4E9C"/>
			<path d="M128.628,261.67c1.702,2.859,4.536,4.861,7.798,5.51c0.761,0.151,1.529,0.225,2.294,0.225     c2.51,0,4.976-0.806,7.021-2.329l50.964-38c5.2-3.877,6.271-11.234,2.395-16.435c-3.878-5.2-11.234-6.272-16.435-2.395     l-28.902,21.55c7.332-29.265,26.935-54.281,54.734-68.393c5.784-2.936,8.092-10.005,5.156-15.787     c-2.937-5.784-10.007-8.093-15.787-5.156c-33.016,16.761-56.564,46.113-66.086,80.586l-14.21-23.867     c-3.318-5.573-10.525-7.4-16.099-4.083c-5.574,3.318-7.401,10.526-4.083,16.099L128.628,261.67z" data-original="#000000" class="active-path" data-old_color="#000000" fill="#1C4E9C"/>
			<path d="M414.884,301.72l-31.244-52.476c-1.702-2.859-4.536-4.861-7.798-5.51c-3.262-0.649-6.646,0.115-9.313,2.103l-50.964,38     c-5.2,3.877-6.271,11.234-2.395,16.435c3.877,5.2,11.234,6.272,16.435,2.395l29.382-21.907     c-7.164,29.662-26.9,55.043-55.011,69.289c-5.785,2.932-8.099,9.999-5.166,15.784c2.07,4.085,6.2,6.437,10.485,6.437     c1.786,0,3.598-0.409,5.3-1.271c33.076-16.762,56.658-46.143,66.179-80.661l13.93,23.395c2.197,3.69,6.097,5.738,10.102,5.738     c2.043,0,4.114-0.534,5.996-1.655C416.374,314.499,418.202,307.292,414.884,301.72z" data-original="#000000" class="active-path" data-old_color="#000000" fill="#1C4E9C"/>
			<path d="M193.871,410.369c2.197,3.69,6.097,5.738,10.102,5.738c2.043,0,4.114-0.534,5.996-1.655l52.476-31.244     c2.859-1.702,4.861-4.536,5.51-7.798c0.649-3.262-0.115-6.647-2.103-9.313l-38-50.964c-3.878-5.2-11.235-6.274-16.435-2.395     c-5.2,3.877-6.271,11.234-2.395,16.435l21.736,29.152c-29.54-7.27-54.768-27.024-68.925-55.102     c-2.921-5.792-9.982-8.12-15.775-5.199c-5.791,2.921-8.119,9.982-5.199,15.775c16.735,33.19,46.14,56.853,80.722,66.404     l-23.629,14.068C192.381,397.588,190.552,404.797,193.871,410.369z" data-original="#000000" class="active-path" data-old_color="#000000" fill="#1C4E9C"/>
			<path d="M365.412,460.641c-79.403,42.37-173.462,35.107-244.449-16.132l41.736,4.967c6.439,0.763,12.283-3.833,13.05-10.274     c0.766-6.44-3.833-12.283-10.275-13.049l-80.708-9.605c-3.836-0.457-7.661,1.006-10.214,3.914     c-2.552,2.908-3.509,6.884-2.558,10.634l18.27,72.042c1.349,5.319,6.128,8.86,11.375,8.86c0.955,0,1.927-0.117,2.895-0.363     c6.288-1.595,10.092-7.984,8.497-14.27l-9.214-36.333c34.076,25.421,73.737,41.782,116.478,47.812     c11.763,1.659,23.624,2.479,35.479,2.479c41.949,0,83.797-10.271,120.694-29.959c5.723-3.053,7.886-10.168,4.833-15.89     C378.248,459.751,371.134,457.589,365.412,460.641z" data-original="#000000" class="active-path" data-old_color="#000000" fill="#1C4E9C"/>
			<path d="M146.49,51.222c78.373-42.07,174.567-34.473,245.453,16.376l-42.644-5.075c-6.442-0.773-12.283,3.833-13.05,10.274     c-0.766,6.44,3.833,12.283,10.275,13.049l80.708,9.605c0.464,0.055,0.928,0.082,1.389,0.082c3.356,0,6.581-1.441,8.824-3.996     c2.552-2.908,3.509-6.884,2.558-10.634L421.734,8.86c-1.595-6.288-7.986-10.09-14.27-8.497     c-6.288,1.595-10.092,7.984-8.497,14.27l8.991,35.455C373.939,24.874,334.402,8.66,291.808,2.704     c-53.513-7.486-109.063,2.398-156.426,27.824c-5.715,3.068-7.86,10.187-4.793,15.901C133.656,52.142,140.774,54.29,146.49,51.222     z" data-original="#000000" class="active-path" data-old_color="#000000" fill="#1C4E9C"/>
			<path d="M350.478,207.742c2.076,4.067,6.196,6.409,10.47,6.409c1.796,0,3.62-0.413,5.329-1.286     c5.777-2.948,8.07-10.021,5.123-15.799c-16.789-32.903-46.115-56.37-80.523-65.861l23.632-14.07     c5.574-3.318,7.401-10.526,4.083-16.099c-3.318-5.573-10.525-7.401-16.099-4.083l-52.476,31.244     c-2.859,1.702-4.861,4.536-5.51,7.798c-0.649,3.263,0.115,6.647,2.103,9.313l38,50.964c2.305,3.092,5.841,4.725,9.423,4.725     c2.442,0,4.903-0.759,7.011-2.33c5.2-3.877,6.271-11.234,2.395-16.435l-21.733-29.147     C311.103,160.306,336.272,179.9,350.478,207.742z" data-original="#000000" class="active-path" data-old_color="#000000" fill="#1C4E9C"/>
		</g>
	</g>
</g></g> </svg>
