<?xml version="1.0" encoding="utf-8"?>
<!-- Generator: Adobe Illustrator 22.0.1, SVG Export Plug-In . SVG Version: 6.00 Build 0)  -->
<svg version="1.1"
	 id="svg552" inkscape:version="0.92.3 (2405546, 2018-03-11)" sodipodi:docname="baloise.group.svg" xmlns:cc="http://creativecommons.org/ns#" xmlns:dc="http://purl.org/dc/elements/1.1/" xmlns:inkscape="http://www.inkscape.org/namespaces/inkscape" xmlns:rdf="http://www.w3.org/1999/02/22-rdf-syntax-ns#" xmlns:sodipodi="http://sodipodi.sourceforge.net/DTD/sodipodi-0.dtd" xmlns:svg="http://www.w3.org/2000/svg"
	 xmlns="http://www.w3.org/2000/svg" xmlns:xlink="http://www.w3.org/1999/xlink" x="0px" y="0px" viewBox="0 0 798.4 209.6"
	 style="enable-background:new 0 0 798.4 209.6;" xml:space="preserve">
<style type="text/css">
	.st0{fill:#FFFFFF;}
</style>
<sodipodi:namedview  bordercolor="#666666" borderopacity="1" gridtolerance="10" guidetolerance="10" id="namedview554" inkscape:current-layer="svg552" inkscape:cx="784.27651" inkscape:cy="897.13427" inkscape:pageopacity="0" inkscape:pageshadow="2" inkscape:window-height="1372" inkscape:window-maximized="0" inkscape:window-width="1704" inkscape:window-x="1720" inkscape:window-y="0" inkscape:zoom="0.36239223" objecttolerance="10" pagecolor="#ffffff" showgrid="false">
	</sodipodi:namedview>
<desc  id="desc2">Created with Fabric.js 1.7.19</desc>
<g id="g843" transform="matrix(10.896627,0,0,-10.896627,333.14944,533.68011)" inkscape:label="ink_ext_XXXXXX">
	<g id="g845" transform="scale(0.1)">
		<path id="path847" inkscape:connector-curvature="0" class="st0" d="M-48.1,329.8c-0.1-5.6-0.7-8.6-2.2-11.7
			c-3.2-6.4-9.1-9.8-16.9-9.8c-11.8,0-19.9,7.9-19.9,19.3c0,11.6,8.2,19.6,20.3,19.6c7.9,0,13.3-3.3,16.8-10.3l-9.2-3.7
			c-1.7,3.9-4.3,5.8-8,5.8c-5.5,0-9.7-4.9-9.7-11.4c0-6.7,4.1-11.4,10-11.4c4.4,0,7,2.1,7.7,6.3h-7.9v7.4L-48.1,329.8"/>
		<path id="path849" inkscape:connector-curvature="0" class="st0" d="M-32.9,334.3v-4.1c2.1,3.1,4.5,4.3,8.3,4.3
			c0.6,0,0.8,0,1.7-0.1v-8.3c-1.5,0.7-2.3,0.9-3.8,0.9c-4.2,0-6.3-2.4-6.3-6.9v-10.6h-8.9v24.7L-32.9,334.3"/>
		<path id="path851" inkscape:connector-curvature="0" class="st0" d="M-9.3,322c0-3.1,2.6-5.7,5.8-5.7s5.8,2.6,5.8,5.7
			c0,3.2-2.6,5.7-5.8,5.7S-9.3,325.2-9.3,322z M11.8,322c0-7.8-6.3-13.3-15.2-13.3s-15.3,5.5-15.3,13.3c0,7.8,6.3,13.3,15.3,13.3
			C5.5,335.3,11.8,329.7,11.8,322"/>
		<path id="path853" inkscape:connector-curvature="0" class="st0" d="M26.8,320.3c0-3,1.5-4.5,4.6-4.5c3,0,4.5,1.5,4.5,4.5v14h9
			v-15.7c0-6.6-4.7-10-13.5-10s-13.5,3.5-13.5,10v15.7h8.9L26.8,320.3"/>
		<path id="path855" inkscape:connector-curvature="0" class="st0" d="M60.6,322c0-3.1,2.6-5.7,5.8-5.7c3.2,0,5.8,2.5,5.8,5.7
			c0,3.1-2.6,5.6-5.8,5.6C63.2,327.6,60.6,325.1,60.6,322z M52,297.1v37.2h8.9v-2.7c2,2.5,4.4,3.5,7.8,3.5c7.2,0,12.8-5.8,12.8-13.2
			c0-7.5-5.5-13.2-12.8-13.2c-3.2,0-5.6,1-7.9,3.2V297L52,297.1"/>
		<path id="path857" inkscape:connector-curvature="0" class="st0" d="M-60.2,457.3h2.1c7.8,0,16.9-0.6,16.9-10.6
			c0-9.3-8-10.6-15.7-10.6h-3.3C-60.2,436-60.2,457.3-60.2,457.3z M-60.2,415h2.9c9.4,0,23.7,1.3,23.7-11.8c0-12-14.4-11.5-23-11.5
			h-3.7L-60.2,415 M-44.6,370.1c20.3,0,40.2,7.5,40.2,30.2c0,15.1-6.8,25.6-22.7,27.7v0.3c9,4.4,12.3,12.4,12.3,22.4
			c0,20.8-13.2,28.2-33,28.2h-41.4V370.1H-44.6z"/>
		<path id="path859" inkscape:connector-curvature="0" class="st0" d="M90.5,444.1H63.7v-7.3c-5.6,6.5-14.7,9.7-23.4,9.7
			c-22.4,0-37.8-18.2-37.8-39.3s15.7-39.5,38.1-39.5c8.8,0,18.1,3.3,22.8,10.6h0.3v-8.2h26.8V444.1z M47.4,423.7
			c10.9,0,17.3-7.6,17.3-16.7c0-9.3-6.3-16.5-17.3-16.5c-10.9,0-17.3,7.2-17.3,16.5C30.1,416.1,36.5,423.7,47.4,423.7"/>
		<path id="path861" inkscape:connector-curvature="0" class="st0" d="M104.1,370.1h26.8v119.7h-26.8
			C104.1,489.8,104.1,370.1,104.1,370.1z"/>
		<path id="path863" inkscape:connector-curvature="0" class="st0" d="M184.8,446.5c-24.3,0-45.5-14.3-45.5-39.5
			s21.4-39.3,45.5-39.3c24.3,0,45.5,14.3,45.5,39.3C230.3,432.2,209.1,446.5,184.8,446.5z M184.8,423.7c10.9,0,17.2-7.6,17.2-16.7
			c0-9.3-6.3-16.5-17.2-16.5s-17.2,7.2-17.2,16.5C167.6,416.1,173.9,423.7,184.8,423.7"/>
		<path id="path865" inkscape:connector-curvature="0" class="st0" d="M267.3,472.5c0-8.1-6.8-14.7-15-14.7c-8.3,0-15,6.7-15,14.7
			c0,8.1,6.8,14.7,15,14.7S267.3,480.6,267.3,472.5z M265.6,370.1h-26.8v74h26.8V370.1"/>
		<path id="path867" inkscape:connector-curvature="0" class="st0" d="M328.9,425c-4.1,2.1-9.9,3.6-14.4,3.6c-3.1,0-8.6-1.3-8.6-5.1
			c0-5.1,8.6-5.8,12.3-6.5c12.5-2.5,22-8.2,22-21.9c0-19.4-18.1-27.5-35.8-27.5c-10.7,0-21.3,3-30.5,8.5l9.7,18.3
			c5.4-3.7,14.6-7.5,21.2-7.5c3.4,0,8.6,1.6,8.6,5.6c0,5.8-8.6,6-17,8.2c-8.4,2.1-16.8,6.2-16.8,19.4c0,18.2,16.8,26.2,33.4,26.2
			c8.6,0,17.1-1.3,24.9-4.8L328.9,425"/>
		<path id="path869" inkscape:connector-curvature="0" class="st0" d="M427.8,405.5c0,25.1-15.2,41-41.4,41
			c-24.6,0-41.9-14.8-41.9-39.4c0-25.5,18.7-39.4,43.8-39.4c17.2,0,34.2,7.9,38.5,25.4H401c-3-4.9-7.1-6.7-12.8-6.7
			c-11.1,0-16.8,5.8-16.8,16.4h56.5v2.7H427.8z M371.8,417.9c1.6,7.5,8.1,11.6,15.9,11.6c7.2,0,13.9-4.6,15.2-11.6H371.8"/>
		<path id="path871" inkscape:connector-curvature="0" class="st0" d="M-189.1,386.8l25.4-24.9l-53.7-52.5l-88.4,86.4l88.4,86.4
			l79.4-77.6h37.3v-34.2H-155l-62.3,60.9l-36.8-35.9l36.8-35.8L-189.1,386.8L-189.1,386.8"/>
	</g>
</g>
</svg>
