<?xml version="1.0" encoding="UTF-8" standalone="no"?>
<!-- Created with Inkscape (http://www.inkscape.org/) -->

<svg
   xmlns:dc="http://purl.org/dc/elements/1.1/"
   xmlns:cc="http://creativecommons.org/ns#"
   xmlns:rdf="http://www.w3.org/1999/02/22-rdf-syntax-ns#"
   xmlns:svg="http://www.w3.org/2000/svg"
   xmlns="http://www.w3.org/2000/svg"
   xmlns:sodipodi="http://sodipodi.sourceforge.net/DTD/sodipodi-0.dtd"
   xmlns:inkscape="http://www.inkscape.org/namespaces/inkscape"
   width="281.97305mm"
   height="83.483521mm"
   viewBox="0 0 281.97305 83.483521"
   version="1.1"
   id="svg8"
   inkscape:version="0.92.2 (5c3e80d, 2017-08-06)"
   sodipodi:docname="logo.svg">
  <defs
     id="defs2" />
  <sodipodi:namedview
     id="base"
     pagecolor="#ffffff"
     bordercolor="#666666"
     borderopacity="1.0"
     inkscape:pageopacity="0.0"
     inkscape:pageshadow="2"
     inkscape:zoom="0.7"
     inkscape:cx="293.60791"
     inkscape:cy="87.668227"
     inkscape:document-units="mm"
     inkscape:current-layer="layer1"
     showgrid="false"
     inkscape:window-width="1704"
     inkscape:window-height="1362"
     inkscape:window-x="3320"
     inkscape:window-y="0"
     inkscape:window-maximized="0"
     fit-margin-top="0"
     fit-margin-left="0"
     fit-margin-right="0"
     fit-margin-bottom="0" />
  <metadata
     id="metadata5">
    <rdf:RDF>
      <cc:Work
         rdf:about="">
        <dc:format>image/svg+xml</dc:format>
        <dc:type
           rdf:resource="http://purl.org/dc/dcmitype/StillImage" />
        <dc:title></dc:title>
      </cc:Work>
    </rdf:RDF>
  </metadata>
  <g
     inkscape:label="Layer 1"
     inkscape:groupmode="layer"
     id="layer1"
     transform="translate(-7.5134753,-150.25824)">
    <g
       transform="matrix(1.105742,0,0,-1.105742,-169.84533,642.60756)"
       inkscape:label="logo baloise"
       id="g4523">
      <g
         id="g4525">
        <path
           inkscape:connector-curvature="0"
           id="path4527"
           style="fill:#1c4e9c;fill-opacity:1;fill-rule:nonzero;stroke:none"
           d="m 250.281,380.324 3.5,8.75 h 4.071 l -6.157,-14.406 h -2.906 l -6.062,14.406 h 4.074 l 3.48,-8.75" />
        <path
           inkscape:connector-curvature="0"
           id="path4529"
           style="fill:#1c4e9c;fill-opacity:1;fill-rule:nonzero;stroke:none"
           d="m 260.328,380.988 c 0.211,1.016 1.055,1.547 2.067,1.547 0.937,0 1.796,-0.613 1.968,-1.547 z m 7.27,-1.64 c 0,3.343 -1.973,5.445 -5.375,5.445 -3.196,0 -5.434,-1.969 -5.434,-5.238 0,-3.364 2.43,-5.2 5.684,-5.2 2.234,0 4.433,1.055 4.988,3.368 h -3.348 c -0.379,-0.668 -0.914,-0.914 -1.66,-0.914 -1.433,0 -2.18,0.761 -2.18,2.171 h 7.325 v 0.368" />
        <path
           inkscape:connector-curvature="0"
           id="path4531"
           style="fill:#1c4e9c;fill-opacity:1;fill-rule:nonzero;stroke:none"
           d="m 273.387,382.867 h 0.035 c 0.672,1.207 1.82,1.742 3.176,1.742 h 0.672 v -3.343 c -0.481,0.265 -0.938,0.324 -1.477,0.324 -1.93,0 -2.406,-1.281 -2.406,-2.961 v -3.961 h -3.485 v 9.812 h 3.485 v -1.613" />
        <path
           inkscape:connector-curvature="0"
           id="path4533"
           style="fill:#1c4e9c;fill-opacity:1;fill-rule:nonzero;stroke:none"
           d="m 285.496,381.961 c -0.535,0.285 -1.281,0.48 -1.875,0.48 -0.402,0 -1.101,-0.175 -1.101,-0.671 0,-0.672 1.101,-0.766 1.582,-0.864 1.625,-0.324 2.851,-1.09 2.851,-2.914 0,-2.574 -2.355,-3.637 -4.644,-3.637 -1.395,0 -2.774,0.403 -3.957,1.122 l 1.261,2.421 c 0.707,-0.496 1.895,-0.996 2.754,-0.996 0.442,0 1.102,0.211 1.102,0.75 0,0.762 -1.102,0.805 -2.192,1.09 -1.089,0.289 -2.179,0.824 -2.179,2.586 0,2.402 2.179,3.469 4.332,3.469 1.109,0 2.222,-0.168 3.234,-0.629 l -1.168,-2.207" />
        <path
           inkscape:connector-curvature="0"
           id="path4535"
           style="fill:#1c4e9c;fill-opacity:1;fill-rule:nonzero;stroke:none"
           d="m 292.832,374.668 h -3.484 v 9.812 h 3.484 z m 0.223,13.59 c 0,-1.074 -0.879,-1.953 -1.95,-1.953 -1.07,0 -1.949,0.879 -1.949,1.953 0,1.07 0.879,1.949 1.949,1.949 1.071,0 1.95,-0.879 1.95,-1.949" />
        <path
           inkscape:connector-curvature="0"
           id="path4537"
           style="fill:#1c4e9c;fill-opacity:1;fill-rule:nonzero;stroke:none"
           d="m 303.117,381.281 c -0.515,0.383 -1.129,0.688 -1.797,0.688 -1.34,0 -2.39,-1.031 -2.39,-2.383 0,-1.41 1.015,-2.402 2.449,-2.402 0.609,0 1.281,0.25 1.738,0.668 v -2.942 c -0.765,-0.383 -1.605,-0.555 -2.449,-0.555 -2.902,0 -5.324,2.165 -5.324,5.118 0,3.144 2.402,5.324 5.48,5.324 0.801,0 1.606,-0.192 2.293,-0.574 v -2.942" />
        <path
           inkscape:connector-curvature="0"
           id="path4539"
           style="fill:#1c4e9c;fill-opacity:1;fill-rule:nonzero;stroke:none"
           d="m 309.297,390.551 v -7.321 h 0.039 c 0.805,1.071 1.785,1.567 3.148,1.567 2.493,0 3.7,-1.641 3.7,-4.125 v -6.004 h -3.485 v 5.031 c 0,1.145 -0.172,2.332 -1.578,2.332 -1.383,0 -1.824,-1.187 -1.824,-2.332 v -5.031 h -3.488 v 15.883 h 3.488" />
        <path
           inkscape:connector-curvature="0"
           id="path4541"
           style="fill:#1c4e9c;fill-opacity:1;fill-rule:nonzero;stroke:none"
           d="m 321.996,380.988 c 0.211,1.016 1.051,1.547 2.063,1.547 0.937,0 1.8,-0.613 1.972,-1.547 z m 7.266,-1.64 c 0,3.343 -1.969,5.445 -5.371,5.445 -3.196,0 -5.438,-1.969 -5.438,-5.238 0,-3.364 2.434,-5.2 5.684,-5.2 2.238,0 4.437,1.055 4.992,3.368 h -3.348 c -0.383,-0.668 -0.918,-0.914 -1.664,-0.914 -1.433,0 -2.179,0.761 -2.179,2.171 h 7.324 v 0.368" />
        <path
           inkscape:connector-curvature="0"
           id="path4543"
           style="fill:#1c4e9c;fill-opacity:1;fill-rule:nonzero;stroke:none"
           d="m 335.051,382.867 h 0.039 c 0.672,1.207 1.816,1.742 3.176,1.742 h 0.668 v -3.343 c -0.477,0.265 -0.938,0.324 -1.473,0.324 -1.93,0 -2.41,-1.281 -2.41,-2.961 v -3.961 h -3.485 v 9.812 h 3.485 v -1.613" />
        <path
           inkscape:connector-curvature="0"
           id="path4545"
           style="fill:#1c4e9c;fill-opacity:1;fill-rule:nonzero;stroke:none"
           d="m 344.57,384.48 v -5.234 c 0,-1.242 0.305,-2.125 1.746,-2.125 1.442,0 1.75,0.883 1.75,2.125 v 5.234 h 3.485 v -5.902 c 0,-3.23 -2.278,-4.223 -5.235,-4.223 -2.953,0 -5.23,0.993 -5.23,4.223 v 5.902 h 3.484" />
        <path
           inkscape:connector-curvature="0"
           id="path4547"
           style="fill:#1c4e9c;fill-opacity:1;fill-rule:nonzero;stroke:none"
           d="m 357.672,383.215 h 0.039 c 0.809,1.183 1.789,1.582 3.152,1.582 2.645,0 3.696,-1.66 3.696,-4.067 v -6.062 h -3.485 v 4.781 c 0,0.938 0.153,2.582 -1.574,2.582 -1.422,0 -1.828,-1.054 -1.828,-2.273 v -5.09 h -3.484 v 9.812 h 3.484 v -1.265" />
        <path
           inkscape:connector-curvature="0"
           id="path4549"
           style="fill:#1c4e9c;fill-opacity:1;fill-rule:nonzero;stroke:none"
           d="m 372.605,381.844 c 1.426,0 2.254,-1.012 2.254,-2.211 0,-1.242 -0.828,-2.195 -2.25,-2.195 -1.421,0 -2.25,0.953 -2.25,2.195 0,1.199 0.825,2.211 2.246,2.211 z m 5.618,2.636 h -3.489 v -1.046 h -0.035 c -0.691,0.98 -1.746,1.359 -2.898,1.359 -3.004,0 -5.024,-2.449 -5.024,-5.316 0,-2.821 1.961,-4.997 4.832,-4.997 1.305,0 2.223,0.438 3.125,1.336 v -0.457 c 0,-1.589 -0.363,-2.828 -2.246,-2.828 -0.324,0 -0.687,0.078 -0.996,0.235 -0.308,0.148 -0.554,0.398 -0.652,0.742 h -3.891 c 0.305,-2.578 3.317,-3.742 5.582,-3.742 3.621,0 5.692,1.679 5.692,5.843 v 8.871" />
        <path
           inkscape:connector-curvature="0"
           id="path4551"
           style="fill:#1c4e9c;fill-opacity:1;fill-rule:nonzero;stroke:none"
           d="m 383.949,380.988 c 0.211,1.016 1.051,1.547 2.067,1.547 0.937,0 1.797,-0.613 1.968,-1.547 z m 7.266,-1.64 c 0,3.343 -1.969,5.445 -5.371,5.445 -3.196,0 -5.438,-1.969 -5.438,-5.238 0,-3.364 2.434,-5.2 5.684,-5.2 2.238,0 4.437,1.055 4.992,3.368 h -3.348 c -0.382,-0.668 -0.918,-0.914 -1.664,-0.914 -1.433,0 -2.179,0.761 -2.179,2.171 h 7.324 v 0.368" />
        <path
           inkscape:connector-curvature="0"
           id="path4553"
           style="fill:#1c4e9c;fill-opacity:1;fill-rule:nonzero;stroke:none"
           d="m 397.008,383.215 h 0.035 c 0.809,1.183 1.789,1.582 3.152,1.582 2.645,0 3.7,-1.66 3.7,-4.067 v -6.062 h -3.485 v 4.781 c 0,0.938 0.153,2.582 -1.578,2.582 -1.422,0 -1.824,-1.054 -1.824,-2.273 v -5.09 h -3.488 v 9.812 h 3.488 v -1.265" />
        <path
           inkscape:connector-curvature="0"
           id="path4555"
           style="fill:#1c4e9c;fill-opacity:1;fill-rule:nonzero;stroke:none"
           d="m 254.27,416.023 h 1.125 c 3.605,0 9.07,0.508 9.07,-4.621 0,-4.675 -5.52,-4.507 -8.789,-4.507 h -1.406 z m 5.968,-17.554 c 7.77,0 15.36,2.922 15.36,11.808 0,5.914 -2.586,10.028 -8.66,10.817 v 0.113 c 3.46,1.746 4.695,4.863 4.695,8.734 0,8.125 -5.063,11.047 -12.613,11.047 h -15.809 v -42.519 z m -5.968,34.09 h 0.789 c 2.996,0 6.449,-0.227 6.449,-4.153 0,-3.644 -3.055,-4.156 -5.996,-4.156 h -1.242 v 8.309" />
        <path
           inkscape:connector-curvature="0"
           id="path4557"
           style="fill:#1c4e9c;fill-opacity:1;fill-rule:nonzero;stroke:none"
           d="m 295.422,419.418 c 4.18,0 6.609,-2.977 6.609,-6.512 0,-3.648 -2.429,-6.457 -6.609,-6.457 -4.18,0 -6.606,2.809 -6.606,6.457 0,3.535 2.426,6.512 6.606,6.512 z m 16.476,7.984 h -10.25 v -2.847 c -2.14,2.543 -5.628,3.785 -8.949,3.785 -8.551,0 -14.453,-7.113 -14.453,-15.379 0,-8.262 6.016,-15.43 14.563,-15.43 3.379,0 6.925,1.297 8.726,4.176 h 0.113 v -3.238 h 10.25 v 28.933" />
        <path
           inkscape:connector-curvature="0"
           id="path4559"
           style="fill:#1c4e9c;fill-opacity:1;fill-rule:nonzero;stroke:none"
           d="m 336.242,419.953 c -1.578,0.848 -3.773,1.41 -5.519,1.41 -1.203,0 -3.282,-0.508 -3.282,-1.972 0,-1.973 3.282,-2.254 4.688,-2.539 4.789,-0.957 8.394,-3.211 8.394,-8.567 0,-7.605 -6.929,-10.762 -13.699,-10.762 -4.105,0 -8.156,1.184 -11.644,3.325 l 3.715,7.156 c 2.082,-1.465 5.566,-2.934 8.093,-2.934 1.317,0 3.285,0.621 3.285,2.2 0,2.253 -3.285,2.367 -6.488,3.214 -3.203,0.844 -6.41,2.422 -6.41,7.61 0,7.097 6.41,10.25 12.781,10.25 3.27,0 6.539,-0.504 9.524,-1.856 l -3.438,-6.535" />
        <path
           inkscape:connector-curvature="0"
           id="path4561"
           style="fill:#1c4e9c;fill-opacity:1;fill-rule:nonzero;stroke:none"
           d="m 354.598,398.469 h -10.25 v 46.797 h 10.25 v -46.797" />
        <path
           inkscape:connector-curvature="0"
           id="path4563"
           style="fill:#1c4e9c;fill-opacity:1;fill-rule:nonzero;stroke:none"
           d="m 368.633,417.148 c 0.621,2.969 3.101,4.536 6.09,4.536 2.757,0 5.297,-1.793 5.804,-4.536 z m 21.418,-4.843 c 0,9.828 -5.805,16.035 -15.836,16.035 -9.414,0 -16.004,-5.809 -16.004,-15.414 0,-9.981 7.156,-15.395 16.734,-15.395 6.594,0 13.075,3.102 14.711,9.926 h -9.863 c -1.129,-1.91 -2.707,-2.644 -4.902,-2.644 -4.227,0 -6.426,2.253 -6.426,6.421 h 21.586 v 1.071" />
        <path
           inkscape:connector-curvature="0"
           id="path4565"
           style="fill:#1c4e9c;fill-opacity:1;fill-rule:nonzero;stroke:none"
           d="m 403.969,422.637 h 0.109 c 1.973,3.554 5.356,5.136 9.356,5.136 h 1.972 v -9.878 c -1.41,0.789 -2.761,0.957 -4.34,0.957 -5.691,0 -7.097,-3.774 -7.097,-8.696 v -11.687 h -10.254 v 28.933 h 10.254 v -4.765" />
        <path
           inkscape:connector-curvature="0"
           id="path4567"
           style="fill:#1c4e9c;fill-opacity:1;fill-rule:nonzero;stroke:none"
           d="m 204.98,404.941 9.727,-9.742 -20.512,-20.547 -33.797,33.797 33.797,33.797 30.344,-30.379 h 14.27 v -13.406 h -20.793 l -23.817,23.812 -14.054,-14.066 14.05,-14.031 10.785,10.765 v 0" />
      </g>
    </g>
  </g>
</svg>
